# xmcd
#
# Track frame offsets:
#	199
#	24214
#	45472
#	67141
#	87214
#	102413
#	120815
#	133656
#	154310
#	172956
#	187594
#
# Disc length: 2596 seconds
# Revision: 0
# Processed by: cddbd v1.5.2PL0 Copyright (c) Steve Scherf et al.
# Submitted via: dBpowerAMP V12.0
#
DISCID=7f0a220b
DTITLE=Ellen Starski - The Days When Peonies Prayed For The Ants
DYEAR=2016
DGENRE=
TTITLE0=Ode to Nanny And Cookie
TTITLE1=Honey I'm Not Him
TTITLE2=Missing You
TTITLE3=Slip Of Paper
TTITLE4=Separated By Time
TTITLE5=Taken By The Breeze
TTITLE6=Miss You Mary
TTITLE7=Daughter Of The Sea
TTITLE8=Fairweather Friend
TTITLE9=Chasing The Sun
TTITLE10=The Days When Peonies Prayed For The Ants
EXTD=
EXTT0=
EXTT1=
EXTT2=
EXTT3=
EXTT4=
EXTT5=
EXTT6=
EXTT7=
EXTT8=
EXTT9=
EXTT10=
PLAYORDER=
